<?xml version="1.0" standalone="no"?>
<!DOCTYPE svg PUBLIC "-//W3C//DTD SVG 20010904//EN"
 "http://www.w3.org/TR/2001/REC-SVG-20010904/DTD/svg10.dtd">
<svg version="1.0" xmlns="http://www.w3.org/2000/svg"
 width="500.000000pt" height="500.000000pt" viewBox="0 0 500.000000 500.000000"
 preserveAspectRatio="xMidYMid meet">
<metadata>
Created by potrace 1.11, written by Peter Selinger 2001-2013
</metadata>
<g transform="translate(0.000000,500.000000) scale(0.100000,-0.100000)"
fill="#000000" stroke="none">
<path d="M0 2500 l0 -2500 2500 0 2500 0 0 2500 0 2500 -2500 0 -2500 0 0
-2500z m4113 152 l-348 -2 -625 625 c-344 344 -630 625 -635 625 -6 0 -291
-281 -635 -625 l-625 -625 -350 0 -350 0 980 980 980 980 978 -977 977 -978
-347 -3z m-2263 -917 c355 -355 649 -645 655 -645 5 0 300 290 655 645 l645
645 348 -2 347 -3 -997 -998 -998 -997 -1000 1000 -1000 1000 350 0 350 0 645
-645z"/>
</g>
</svg>
